<svg width="353" height="51" viewBox="0 0 353 51" fill="none" xmlns="http://www.w3.org/2000/svg">
<path d="M26.697 0.520935C12.6656 0.520935 1.29031 11.7044 1.29031 25.4997C1.29031 39.2965 12.6656 50.4794 26.697 50.4794C40.729 50.4794 52.1036 39.2965 52.1036 25.4997C52.1036 11.7053 40.7296 0.522128 26.6967 0.522128L26.697 0.520935ZM38.3483 36.5475C37.892 37.2834 36.9169 37.5139 36.1709 37.0656C30.2048 33.4806 22.6953 32.6707 13.8515 34.657C12.9993 34.8491 12.1498 34.3238 11.9556 33.4862C11.7606 32.6483 12.2924 31.8132 13.1467 31.6223C22.8248 29.4469 31.1264 30.3832 37.8231 34.4064C38.5695 34.8568 38.8061 35.8143 38.348 36.5481L38.3483 36.5475ZM41.458 29.747C40.8834 30.6636 39.6644 30.9511 38.7333 30.3883C31.9055 26.2618 21.4942 25.0666 13.4164 27.4773C12.3688 27.7884 11.2624 27.208 10.9444 26.1798C10.6289 25.1498 11.2196 24.0641 12.2654 23.7509C21.4923 20.9983 32.9629 22.3316 40.8054 27.0699C41.7368 27.6336 42.0311 28.8327 41.4577 29.7472L41.458 29.747ZM41.725 22.6645C33.5353 17.8828 20.0267 17.4431 12.2087 19.776C10.9532 20.1503 9.62561 19.4535 9.24516 18.2192C8.86471 16.9843 9.57282 15.6799 10.8292 15.3047C19.8037 12.6261 34.7228 13.1437 44.1503 18.6461C45.2795 19.305 45.65 20.7388 44.9807 21.8475C44.3132 22.9577 42.8509 23.3237 41.7253 22.6645H41.725Z" fill="#C8C8C8"/>
<path d="M70.4134 23.5809C66.0267 22.5524 65.2458 21.8305 65.2458 20.3138C65.2458 18.8808 66.618 17.9165 68.6586 17.9165C70.6367 17.9165 72.5981 18.6488 74.6545 20.1563C74.7167 20.2019 74.7947 20.2201 74.8714 20.2082C74.9482 20.1969 75.0161 20.1554 75.061 20.0931L77.2029 17.1245C77.2909 17.0022 77.267 16.8337 77.1483 16.7404C74.7009 14.8096 71.9449 13.8709 68.7236 13.8709C63.9871 13.8709 60.6786 16.6655 60.6786 20.664C60.6786 24.9518 63.5326 26.47 68.4645 27.642C72.6621 28.5926 73.3706 29.389 73.3706 30.8127C73.3706 32.3903 71.938 33.3711 69.6325 33.3711C67.0719 33.3711 64.9834 32.5231 62.647 30.5338C62.589 30.4846 62.5096 30.4622 62.4361 30.4664C62.3588 30.4727 62.2881 30.5079 62.2389 30.566L59.8373 33.3762C59.7366 33.4928 59.7493 33.667 59.8658 33.7678C62.5842 36.1538 65.9275 37.414 69.5354 37.414C74.6393 37.414 77.9375 34.6722 77.9375 30.4285C77.9466 26.8462 75.7652 24.8626 70.4225 23.5847L70.4134 23.5809Z" fill="#C8C8C8"/>
<path d="M89.4844 19.3274C87.2721 19.3274 85.4575 20.184 83.9612 21.9394V19.9636C83.9612 19.8076 83.8326 19.6805 83.6742 19.6805H79.7463C79.5876 19.6805 79.4593 19.8076 79.4593 19.9636V41.9178C79.4593 42.0738 79.5876 42.2008 79.7463 42.2008H83.6742C83.8326 42.2008 83.9612 42.0738 83.9612 41.9178V34.9878C85.4579 36.6391 87.2727 37.4459 89.4844 37.4459C93.595 37.4459 97.7563 34.3348 97.7563 28.3877C97.7624 22.439 93.5999 19.3271 89.489 19.3271L89.4844 19.3274ZM93.1888 28.3877C93.1888 31.4161 91.2914 33.5295 88.5746 33.5295C85.8887 33.5295 83.8626 31.3201 83.8626 28.3877C83.8626 25.4556 85.8887 23.2459 88.5746 23.2459C91.2474 23.2456 93.1891 25.4075 93.1891 28.3874L93.1888 28.3877Z" fill="#C8C8C8"/>
<path d="M108.422 19.3274C103.128 19.3274 98.9808 23.3351 98.9808 28.4524C98.9808 33.514 103.1 37.4796 108.357 37.4796C113.67 37.4796 117.83 33.4853 117.83 28.3877C117.83 23.3076 113.698 19.328 108.422 19.328L108.422 19.3274ZM108.422 33.5596C105.606 33.5596 103.483 31.3353 103.483 28.3862C103.483 25.4246 105.533 23.2754 108.357 23.2754C111.191 23.2754 113.328 25.4997 113.328 28.4509C113.328 31.412 111.265 33.5596 108.422 33.5596H108.422Z" fill="#C8C8C8"/>
<path d="M129.134 19.6805H124.812V15.3357C124.812 15.18 124.684 15.0529 124.525 15.0529H120.598C120.439 15.0529 120.31 15.18 120.31 15.3357V19.6805H118.421C118.263 19.6805 118.135 19.8076 118.135 19.9636V23.2826C118.135 23.4383 118.263 23.5656 118.421 23.5656H120.31V32.1535C120.31 35.624 122.067 37.3836 125.532 37.3836C126.941 37.3836 128.11 37.0975 129.211 36.4834C129.301 36.4341 129.356 36.3393 129.356 36.2385V33.0779C129.356 32.9803 129.305 32.8882 129.22 32.8371C129.134 32.7844 129.028 32.7817 128.94 32.8243C128.183 33.1987 127.452 33.3714 126.634 33.3714C125.374 33.3714 124.812 32.8088 124.812 31.548V23.5671H129.134C129.293 23.5671 129.421 23.4401 129.421 23.2841V19.9654C129.427 19.8094 129.299 19.6823 129.139 19.6823L129.134 19.6805Z" fill="#C8C8C8"/>
<path d="M144.194 19.6975V19.1639C144.194 17.594 144.807 16.894 146.18 16.894C146.999 16.894 147.656 17.0538 148.393 17.2955C148.484 17.3235 148.578 17.3095 148.652 17.2561C148.728 17.2027 148.771 17.1171 148.771 17.0264V13.7721C148.771 13.6478 148.689 13.5377 148.567 13.501C147.789 13.2734 146.794 13.0399 145.303 13.0399C141.675 13.0399 139.757 15.0485 139.757 18.8465V19.6638H137.87C137.712 19.6638 137.582 19.7909 137.582 19.9466V23.2826C137.582 23.4383 137.712 23.5656 137.87 23.5656H139.757V36.8121C139.757 36.9681 139.885 37.0951 140.043 37.0951H143.971C144.13 37.0951 144.259 36.9681 144.259 36.8121V23.5665H147.927L153.545 36.8097C152.907 38.2012 152.28 38.478 151.424 38.478C150.732 38.478 150.003 38.2748 149.258 37.874C149.188 37.8361 149.104 37.8298 149.029 37.8528C148.954 37.8787 148.891 37.9336 148.859 38.0052L147.528 40.8768C147.464 41.0125 147.519 41.1718 147.652 41.2422C149.041 41.9822 150.296 42.2981 151.846 42.2981C154.747 42.2981 156.35 40.9698 157.763 37.3964L164.578 20.0841C164.612 19.997 164.602 19.8986 164.547 19.8213C164.493 19.7446 164.406 19.6984 164.311 19.6984H160.222C160.099 19.6984 159.99 19.7751 159.95 19.8881L155.761 31.6518L151.173 19.8804C151.131 19.7709 151.023 19.6984 150.904 19.6984H144.194L144.194 19.6975Z" fill="#C8C8C8"/>
<path d="M135.463 19.6805H131.535C131.376 19.6805 131.247 19.8076 131.247 19.9636V36.8121C131.247 36.9681 131.376 37.0951 131.535 37.0951H135.463C135.621 37.0951 135.751 36.9681 135.751 36.8121V19.9648C135.751 19.8088 135.623 19.6817 135.463 19.6817L135.463 19.6805Z" fill="#C8C8C8"/>
<path d="M133.521 12.009C131.965 12.009 130.702 13.2474 130.702 14.7773C130.702 16.3081 131.965 17.5481 133.521 17.5481C135.077 17.5481 136.338 16.3081 136.338 14.7773C136.338 13.2477 135.076 12.009 133.523 12.009H133.521Z" fill="#C8C8C8"/>
<path d="M165.79 29.8745H174.43V25.9865H165.79V29.8745ZM177.771 36.6425H182.343V25.1585C183.099 24.0425 185.115 23.1785 186.627 23.1785C187.131 23.1785 187.563 23.2505 187.887 23.3225V18.8585C185.727 18.8585 183.567 20.0825 182.343 21.6305V19.2545H177.771V36.6425ZM193.012 16.6985C194.524 16.6985 195.748 15.4745 195.748 13.9625C195.748 12.4505 194.524 11.2265 193.012 11.2265C191.536 11.2265 190.276 12.4505 190.276 13.9625C190.276 15.4745 191.536 16.6985 193.012 16.6985ZM190.744 36.6425H195.316V19.2545H190.744V36.6425ZM204.421 43.2665V34.4105C205.825 36.2105 207.733 37.0745 209.785 37.0745C214.249 37.0745 217.489 33.7265 217.489 27.9305C217.489 22.1345 214.249 18.8225 209.785 18.8225C207.661 18.8225 205.753 19.7585 204.421 21.4505V19.2545H199.849V43.2665H204.421ZM212.737 27.9305C212.737 30.9545 210.973 33.0065 208.345 33.0065C206.869 33.0065 205.177 32.1065 204.421 31.0265V24.8705C205.177 23.7545 206.869 22.8905 208.345 22.8905C210.973 22.8905 212.737 24.9425 212.737 27.9305ZM225.48 43.2665V34.4105C226.884 36.2105 228.792 37.0745 230.844 37.0745C235.308 37.0745 238.548 33.7265 238.548 27.9305C238.548 22.1345 235.308 18.8225 230.844 18.8225C228.72 18.8225 226.812 19.7585 225.48 21.4505V19.2545H220.908V43.2665H225.48ZM233.796 27.9305C233.796 30.9545 232.032 33.0065 229.404 33.0065C227.928 33.0065 226.236 32.1065 225.48 31.0265V24.8705C226.236 23.7545 227.928 22.8905 229.404 22.8905C232.032 22.8905 233.796 24.9425 233.796 27.9305ZM240.851 27.9305C240.851 33.5105 244.847 37.0745 250.139 37.0745C252.839 37.0745 255.575 36.2465 257.303 34.6625L255.287 31.7105C254.171 32.7905 252.263 33.4385 250.643 33.4385C247.691 33.4385 245.927 31.6025 245.639 29.4065H258.563V28.3985C258.563 22.7105 255.035 18.8225 249.851 18.8225C244.559 18.8225 240.851 22.8905 240.851 27.9305ZM249.851 22.4585C252.875 22.4585 254.027 24.6545 254.135 26.3105H245.567C245.783 24.5825 247.007 22.4585 249.851 22.4585ZM261.865 36.6425H266.437V25.1585C267.193 24.0425 269.209 23.1785 270.721 23.1785C271.225 23.1785 271.657 23.2505 271.981 23.3225V18.8585C269.821 18.8585 267.661 20.0825 266.437 21.6305V19.2545H261.865V36.6425ZM273.65 29.8745H282.29V25.9865H273.65V29.8745ZM300.895 36.6425H305.755L311.047 19.2545H306.295L303.055 30.9545L299.239 19.2545H295.171L291.355 30.9545L288.115 19.2545H283.363L288.655 36.6425H293.551L297.223 24.7985L300.895 36.6425ZM312.183 27.9305C312.183 33.5105 316.179 37.0745 321.471 37.0745C324.171 37.0745 326.907 36.2465 328.635 34.6625L326.619 31.7105C325.503 32.7905 323.595 33.4385 321.975 33.4385C319.023 33.4385 317.259 31.6025 316.971 29.4065H329.895V28.3985C329.895 22.7105 326.367 18.8225 321.183 18.8225C315.891 18.8225 312.183 22.8905 312.183 27.9305ZM321.183 22.4585C324.207 22.4585 325.359 24.6545 325.467 26.3105H316.899C317.115 24.5825 318.339 22.4585 321.183 22.4585ZM333.197 36.6425H337.769V34.4105C339.137 36.1385 341.045 37.0745 343.133 37.0745C347.525 37.0745 350.837 33.7625 350.837 27.9665C350.837 22.2785 347.561 18.8225 343.133 18.8225C341.081 18.8225 339.137 19.7225 337.769 21.4865V12.6305H333.197V36.6425ZM337.769 31.0625V24.9065C338.525 23.7545 340.217 22.8905 341.693 22.8905C344.357 22.8905 346.121 24.9425 346.121 27.9665C346.121 30.9905 344.357 33.0065 341.693 33.0065C340.217 33.0065 338.525 32.1785 337.769 31.0625Z" fill="#C8C8C8"/>
</svg>
